<?xml version="1.0" encoding="UTF-8"?>
<svg version="1.1" xmlns="http://www.w3.org/2000/svg" width="512" height="512">
<path d="M0 0 C7.11802671 4.94344929 11.18904361 10.98786312 14.421875 18.953125 C15.07990112 20.56453369 15.07990112 20.56453369 15.7512207 22.20849609 C16.07952881 23.02398926 16.40783691 23.83948242 16.74609375 24.6796875 C17.73416016 24.69427002 18.72222656 24.70885254 19.74023438 24.72387695 C23.43817688 24.78225085 27.13553511 24.85947774 30.83300781 24.94213867 C32.42731173 24.97520548 34.02172758 25.00329309 35.61621094 25.02612305 C37.92040302 25.06000822 40.223586 25.11233487 42.52734375 25.16796875 C43.58097107 25.17755363 43.58097107 25.17755363 44.65588379 25.18733215 C49.90314959 25.34005236 53.95325111 26.499047 58.74609375 28.6796875 C63.3974559 34.40444092 63.86190402 38.6152611 63.74609375 45.6796875 C64.61338104 45.67302567 65.48066833 45.66636383 66.37423706 45.65950012 C74.58270049 45.59916994 82.7910885 45.55360231 90.99972343 45.52425098 C95.21898805 45.50865344 99.43806812 45.48752448 103.65722656 45.45336914 C107.73563555 45.42056313 111.81386799 45.40279013 115.89239883 45.39505577 C117.44158834 45.38955011 118.99076915 45.37879977 120.53988266 45.36249733 C132.7992211 45.23871721 143.41795259 45.8530593 152.74609375 54.6796875 C161.79469515 64.03606446 162.19276718 75.55367621 162.13427734 87.97607422 C162.13835202 89.37843736 162.14369888 90.78079729 162.15020752 92.18315125 C162.16377306 95.95759015 162.15862956 99.73178048 162.14907026 103.5062232 C162.14142641 107.46900908 162.14853147 111.43177497 162.15322876 115.39456177 C162.15866881 122.04009797 162.15153687 128.68553376 162.13720703 135.33105469 C162.12084346 143.00828933 162.12620281 150.68528539 162.14268625 158.36251438 C162.15630306 164.96999904 162.15822105 171.57741196 162.15037024 178.18490613 C162.14569997 182.12472328 162.14505188 186.06442823 162.15497971 190.00423813 C162.16365143 193.70292916 162.15762406 197.40131208 162.14029694 201.09996986 C162.13444711 203.10157982 162.14334301 205.10321589 162.15267944 207.10481262 C162.14421997 208.29901321 162.1357605 209.49321381 162.12704468 210.72360229 C162.1259136 211.7592375 162.12478252 212.7948727 162.12361717 213.86189079 C161.68488038 217.1365779 160.68549103 219.02681491 158.74609375 221.6796875 C158.08609375 222.0096875 157.42609375 222.3396875 156.74609375 222.6796875 C155.48755674 232.21525812 155.48755674 232.21525812 158.29296875 240.984375 C160.67535178 242.80159418 163.12802343 244.22276971 165.74609375 245.6796875 C167.75292103 247.12861138 169.7524548 248.58767016 171.74609375 250.0546875 C189.3974251 262.29977578 208.51975763 269.60308612 229.74609375 272.6796875 C230.39980957 272.77830078 231.05352539 272.87691406 231.72705078 272.97851562 C239.83685678 274.05957457 247.98908151 273.66555518 256.1484375 273.46484375 C257.30988281 273.45066406 258.47132813 273.43648438 259.66796875 273.421875 C260.7156543 273.3997998 261.76333984 273.37772461 262.84277344 273.35498047 C266.48247498 273.7620443 269.140215 275.07380875 271.74609375 277.6796875 C275.75042755 303.05021116 275.52497246 331.29034616 271.74609375 356.6796875 C271.6171875 357.55512207 271.48828125 358.43055664 271.35546875 359.33251953 C268.17635018 380.11085585 262.49250632 399.57277676 253.74609375 418.6796875 C253.25367188 419.77667969 252.76125 420.87367188 252.25390625 422.00390625 C234.80668444 458.9190733 201.67994692 486.61191958 165.05859375 503.3046875 C164.31617432 503.64790039 163.57375488 503.99111328 162.80883789 504.34472656 C162.10364014 504.6537793 161.39844238 504.96283203 160.671875 505.28125 C160.05739502 505.55275879 159.44291504 505.82426758 158.80981445 506.10400391 C153.76465431 507.51137261 149.92048996 506.64921639 145.2890625 504.44140625 C144.2671582 503.95655762 143.24525391 503.47170898 142.19238281 502.97216797 C141.11698242 502.44252441 140.04158203 501.91288086 138.93359375 501.3671875 C137.82081055 500.82465332 136.70802734 500.28211914 135.56152344 499.72314453 C124.97583323 494.4639242 114.31496694 488.72960643 105.453125 480.8046875 C96.5457011 472.94059892 89.2279044 472.24154882 77.74609375 472.6796875 C77.64296875 473.2778125 77.53984375 473.8759375 77.43359375 474.4921875 C76.6259314 477.06202224 75.83363429 478.00047037 73.74609375 479.6796875 C71.76917356 480.05688566 71.76917356 480.05688566 69.46930599 480.06000423 C68.59168415 480.06844418 67.71406231 480.07688412 66.80984586 480.08557981 C65.84488662 480.07956977 64.87992737 480.07355972 63.88572693 480.06736755 C62.86116412 480.07275309 61.83660131 480.07813863 60.78099114 480.08368737 C57.33100579 480.09805047 53.88139964 480.09084244 50.43139648 480.08374023 C47.96444895 480.08943964 45.49750406 480.09640221 43.03056335 480.10453796 C37.01370939 480.12066565 30.99700561 480.12255879 24.98014473 480.11732506 C20.08707955 480.11328579 15.19404522 480.11472404 10.30098152 480.12007332 C9.60488419 480.12082174 8.90878685 480.12157016 8.19159566 480.12234126 C6.77745357 480.12387275 5.36331148 480.12541109 3.9491694 480.12695623 C-9.32309923 480.14069461 -22.59530899 480.13523568 -35.86757629 480.12377102 C-47.99835887 480.11385161 -60.12898863 480.12675447 -72.25974763 480.15070521 C-84.71942351 480.17511948 -97.17902829 480.18469748 -109.63872761 480.17805248 C-116.63217319 480.17456357 -123.62550144 480.17676983 -130.61892891 480.19430351 C-137.20087942 480.2106006 -143.78258659 480.20580734 -150.36454582 480.18699837 C-152.7775708 480.18331403 -155.19061735 480.18641637 -157.60362244 480.19688416 C-160.9043003 480.21010656 -164.20401692 480.19853403 -167.50465393 480.18089294 C-168.45399813 480.19049795 -169.40334232 480.20010296 -170.38145453 480.20999902 C-179.73473953 480.10753412 -187.62580947 477.18524683 -194.49609375 470.74609375 C-200.15451618 464.09430382 -202.37491532 456.78393236 -202.38812733 448.21835899 C-202.39047956 447.56840409 -202.39283179 446.91844918 -202.3952553 446.24879867 C-202.40193436 444.06179427 -202.40148741 441.87484943 -202.40107727 439.68783569 C-202.40437658 438.10758614 -202.40810228 436.52733743 -202.41221875 434.94708979 C-202.42223927 430.59722771 -202.42595563 426.24737942 -202.42860806 421.89750743 C-202.43251094 417.20885681 -202.44208928 412.52021713 -202.45082092 407.83157349 C-202.47058556 396.504954 -202.48065145 385.17833362 -202.48954871 373.8517012 C-202.49393153 368.51835792 -202.49929835 363.18501562 -202.50453758 357.85167313 C-202.5215497 340.12349593 -202.5360441 322.39531935 -202.54328632 304.66713524 C-202.54519623 300.06633885 -202.54711656 295.46554246 -202.54907227 290.86474609 C-202.54955601 289.72123513 -202.55003975 288.57772417 -202.55053815 287.39956136 C-202.55883929 268.87347558 -202.58417772 250.34745435 -202.61665294 231.82139675 C-202.64971935 212.80311183 -202.6677347 193.78485972 -202.67093056 174.76654589 C-202.67309602 164.08764368 -202.68184999 153.4088356 -202.70739174 142.7299614 C-202.72909297 133.63575913 -202.73715196 124.54167388 -202.72742496 115.44744866 C-202.72287863 110.80823008 -202.72478586 106.16925295 -202.7441864 101.53006744 C-202.76180703 97.27976134 -202.76082935 93.02987302 -202.74528911 88.77956255 C-202.74291137 87.24518894 -202.74724527 85.71078649 -202.75911776 84.17645697 C-202.84394479 72.48610757 -201.44202717 63.16221917 -193.171875 54.43359375 C-185.65212028 47.5570767 -177.63812838 45.4180977 -167.55273438 45.45263672 C-166.82980194 45.45234467 -166.10686951 45.45205261 -165.36203003 45.45175171 C-163.00294446 45.4531308 -160.64418576 45.46862388 -158.28515625 45.484375 C-156.63749362 45.4881102 -154.98982874 45.49095478 -153.34216309 45.49295044 C-149.02837881 45.50054698 -144.71473153 45.52016081 -140.40100098 45.5423584 C-135.99000908 45.56290302 -131.57899481 45.5719705 -127.16796875 45.58203125 C-118.5298854 45.60341086 -109.89191292 45.63749815 -101.25390625 45.6796875 C-101.27420898 44.99769287 -101.29451172 44.31569824 -101.31542969 43.61303711 C-101.33911621 42.26737671 -101.33911621 42.26737671 -101.36328125 40.89453125 C-101.38358398 40.00628662 -101.40388672 39.11804199 -101.42480469 38.20288086 C-101.11136065 33.57510357 -98.57364362 30.91428052 -95.31640625 27.8671875 C-90.79796275 25.26565943 -85.63666084 25.48549326 -80.546875 25.36328125 C-79.45878288 25.3321096 -79.45878288 25.3321096 -78.34870911 25.30030823 C-76.04636512 25.23526535 -73.74391343 25.17613977 -71.44140625 25.1171875 C-69.87433811 25.07395915 -68.3072806 25.03034352 -66.74023438 24.98632812 C-62.91156689 24.87963082 -59.08279175 24.77823781 -55.25390625 24.6796875 C-54.86755005 23.79434326 -54.86755005 23.79434326 -54.47338867 22.89111328 C-49.08377716 10.63528436 -43.81504899 1.56601382 -30.94140625 -3.7578125 C-20.03239061 -7.2724326 -9.8259072 -5.75590404 0 0 Z " fill="#E0EEF8" transform="translate(220.25390625,5.3203125)"/>
<path d="M0 0 C0.89332031 0.82951172 0.89332031 0.82951172 1.8046875 1.67578125 C26.15193143 23.5836096 60.69011771 30.3660101 92.33154297 29.37817383 C93.42611816 29.35263428 94.52069336 29.32709473 95.6484375 29.30078125 C96.61974609 29.26597656 97.59105469 29.23117187 98.59179688 29.1953125 C102.13098094 29.5775138 104.77540424 30.95899799 107.3046875 33.48828125 C111.3090213 58.85880491 111.08356621 87.09893991 107.3046875 112.48828125 C107.17578125 113.36371582 107.046875 114.23915039 106.9140625 115.14111328 C103.73494393 135.9194496 98.05110007 155.38137051 89.3046875 174.48828125 C88.81226563 175.58527344 88.31984375 176.68226563 87.8125 177.8125 C70.36527819 214.72766705 37.23854067 242.42051333 0.6171875 259.11328125 C-0.12523193 259.45649414 -0.86765137 259.79970703 -1.63256836 260.15332031 C-2.33776611 260.46237305 -3.04296387 260.77142578 -3.76953125 261.08984375 C-4.38401123 261.36135254 -4.99849121 261.63286133 -5.6315918 261.91259766 C-10.67675194 263.31996636 -14.52091629 262.45781014 -19.15234375 260.25 C-20.6852002 259.52272705 -20.6852002 259.52272705 -22.24902344 258.78076172 C-23.32442383 258.25111816 -24.39982422 257.72147461 -25.5078125 257.17578125 C-26.6205957 256.63324707 -27.73337891 256.09071289 -28.87988281 255.53173828 C-38.30777837 250.84773762 -47.13996926 245.61246231 -55.6953125 239.48828125 C-56.30858398 239.05241699 -56.92185547 238.61655273 -57.55371094 238.16748047 C-63.58254342 233.83738872 -69.15661199 229.45358851 -73.84765625 223.64453125 C-75.70749251 221.47406695 -77.71389012 219.53322131 -79.79077148 217.57250977 C-113.76781236 185.15738234 -128.26173087 135.27547997 -129.6953125 89.48828125 C-129.83883503 82.75961802 -129.8754527 76.03080793 -129.8828125 69.30078125 C-129.88457993 68.05430817 -129.88457993 68.05430817 -129.88638306 66.78265381 C-129.88163352 37.25149506 -129.88163352 37.25149506 -125.6953125 31.48828125 C-122.72750203 30.00437601 -120.03300663 30.35999679 -116.72265625 30.34765625 C-115.26316655 30.33371364 -113.80369283 30.3180151 -112.34423828 30.30078125 C-111.19136322 30.28724609 -111.19136322 30.28724609 -110.01519775 30.2734375 C-74.85920616 29.75464952 -40.31107932 21.10404807 -14.6953125 -4.51171875 C-8.52592658 -6.52035603 -4.5445704 -4.05241646 0 0 Z " fill="#6984F0" transform="translate(384.6953125,249.51171875)"/>
<path d="M0 0 C7.11802671 4.94344929 11.18904361 10.98786312 14.421875 18.953125 C15.07990112 20.56453369 15.07990112 20.56453369 15.7512207 22.20849609 C16.07952881 23.02398926 16.40783691 23.83948242 16.74609375 24.6796875 C17.73416016 24.69427002 18.72222656 24.70885254 19.74023438 24.72387695 C23.43817688 24.78225085 27.13553511 24.85947774 30.83300781 24.94213867 C32.42731173 24.97520548 34.02172758 25.00329309 35.61621094 25.02612305 C37.92040302 25.06000822 40.223586 25.11233487 42.52734375 25.16796875 C43.58097107 25.17755363 43.58097107 25.17755363 44.65588379 25.18733215 C49.90314959 25.34005236 53.95325111 26.499047 58.74609375 28.6796875 C63.3974559 34.40444092 63.86190402 38.6152611 63.74609375 45.6796875 C64.61338104 45.67302567 65.48066833 45.66636383 66.37423706 45.65950012 C74.58270049 45.59916994 82.7910885 45.55360231 90.99972343 45.52425098 C95.21898805 45.50865344 99.43806812 45.48752448 103.65722656 45.45336914 C107.73563555 45.42056313 111.81386799 45.40279013 115.89239883 45.39505577 C117.44158834 45.38955011 118.99076915 45.37879977 120.53988266 45.36249733 C132.7992211 45.23871721 143.41795259 45.8530593 152.74609375 54.6796875 C161.79469515 64.03606446 162.19276718 75.55367621 162.13427734 87.97607422 C162.13835202 89.37843736 162.14369888 90.78079729 162.15020752 92.18315125 C162.16377306 95.95759015 162.15862956 99.73178048 162.14907026 103.5062232 C162.14142641 107.46900908 162.14853147 111.43177497 162.15322876 115.39456177 C162.15866881 122.04009797 162.15153687 128.68553376 162.13720703 135.33105469 C162.12084346 143.00828933 162.12620281 150.68528539 162.14268625 158.36251438 C162.15630306 164.96999904 162.15822105 171.57741196 162.15037024 178.18490613 C162.14569997 182.12472328 162.14505188 186.06442823 162.15497971 190.00423813 C162.16365143 193.70292916 162.15762406 197.40131208 162.14029694 201.09996986 C162.13444711 203.10157982 162.14334301 205.10321589 162.15267944 207.10481262 C162.14421997 208.29901321 162.1357605 209.49321381 162.12704468 210.72360229 C162.1259136 211.7592375 162.12478252 212.7948727 162.12361717 213.86189079 C161.6818125 217.15947626 160.75130491 219.03983178 158.74609375 221.6796875 C154.7508063 223.01144998 152.64754238 222.09839609 148.74609375 220.6796875 C146.43455253 217.21237566 146.49582398 215.90520237 146.49453735 211.8165741 C146.48646309 209.98069481 146.48646309 209.98069481 146.47822571 208.10772705 C146.48224006 206.74914505 146.48641098 205.39056351 146.49072266 204.03198242 C146.48797297 202.60286764 146.4842932 201.17375438 146.47975159 199.74464417 C146.47163516 196.66550317 146.46947225 193.58643482 146.47169876 190.50728416 C146.47452988 185.6368198 146.46018693 180.76650075 146.44271851 175.89607239 C146.39567387 162.04589018 146.37175351 148.19571752 146.36523438 134.34545898 C146.36148247 126.69723415 146.34344154 119.04917342 146.31014001 111.40101892 C146.28992958 106.56127621 146.28755402 101.72195684 146.29842019 96.88218915 C146.30103001 93.86737769 146.28700999 90.8528119 146.26833916 87.83806419 C146.26302301 86.44250383 146.26450418 85.04689805 146.27337456 83.65135574 C146.53442961 73.80386687 146.53442961 73.80386687 141.74609375 65.6796875 C137.3198044 61.78991807 133.56644044 61.54485753 127.79614258 61.47436523 C126.74209984 61.45951584 126.74209984 61.45951584 125.66676331 61.44436646 C123.34558474 61.41279516 121.0243857 61.38801137 118.703125 61.36328125 C117.09314952 61.34270794 115.48317939 61.32171137 113.87321472 61.30030823 C109.63673237 61.24512644 105.40020159 61.19570001 101.16363525 61.14746094 C96.84016614 61.09721749 92.51676731 61.04154627 88.19335938 60.98632812 C79.71099694 60.87879416 71.22857568 60.77733863 62.74609375 60.6796875 C62.76567139 61.59657349 62.76567139 61.59657349 62.78564453 62.53198242 C62.7957959 63.33740479 62.80594727 64.14282715 62.81640625 64.97265625 C62.83598389 66.16797974 62.83598389 66.16797974 62.85595703 67.38745117 C62.63538569 71.98954968 60.76104325 74.71329251 57.50317383 77.81530762 C52.27536495 81.13189191 45.71947403 80.23516539 39.7578125 80.19726562 C38.32825 80.20269006 36.8986931 80.20981452 35.46914673 80.21850586 C31.59718176 80.23670429 27.72564424 80.22968633 23.85367203 80.21698952 C19.79656088 80.20684369 15.73948568 80.21625958 11.68237305 80.22253418 C4.86988777 80.22980599 -1.94242391 80.22023519 -8.75488281 80.20117188 C-16.62461796 80.17940392 -24.49393856 80.18645563 -32.36366367 80.2084775 C-39.12734042 80.22664485 -45.89089257 80.22918332 -52.65458584 80.21872282 C-56.69123057 80.21249519 -60.72768061 80.21163201 -64.76431274 80.22486877 C-68.55987524 80.23644623 -72.35490464 80.2283676 -76.1504097 80.20529175 C-77.54113506 80.20001468 -78.93190549 80.20150134 -80.32261276 80.21034241 C-93.41627368 80.28589093 -93.41627368 80.28589093 -98.25390625 75.6796875 C-100.80220241 72.02712967 -101.39543261 69.32065797 -101.32421875 64.97265625 C-101.31406738 64.16723389 -101.30391602 63.36181152 -101.29345703 62.53198242 C-101.28040527 61.9207251 -101.26735352 61.30946777 -101.25390625 60.6796875 C-111.05967849 60.71776572 -120.86506954 60.77715841 -130.67054176 60.86359024 C-135.22389775 60.90306043 -139.77706047 60.9352511 -144.33056641 60.95068359 C-148.72690371 60.96585329 -153.12270971 61.0003041 -157.51881027 61.04799652 C-159.1940384 61.06280714 -160.86934239 61.07072833 -162.54463577 61.07157135 C-164.89572712 61.07394382 -167.24535346 61.10104328 -169.59619141 61.13378906 C-170.28527588 61.1287587 -170.97436035 61.12372833 -171.68432617 61.11854553 C-176.66798226 61.22559221 -179.53924535 62.37452161 -183.25390625 65.6796875 C-188.17595047 73.03576849 -187.81673882 80.40055513 -187.76184082 88.93823242 C-187.76645303 90.49861577 -187.77280809 92.05899478 -187.7807498 93.61936474 C-187.79742247 97.89575878 -187.78920621 102.17179501 -187.77680492 106.44819021 C-187.7677483 111.06449379 -187.7817272 115.68073619 -187.79272461 120.29702759 C-187.81050786 129.33582724 -187.8066707 138.374494 -187.79507405 147.41329885 C-187.78603924 154.75954227 -187.78481593 162.10574846 -187.78916931 169.45199585 C-187.78978224 170.4976887 -187.79039518 171.54338154 -187.79102668 172.62076205 C-187.79230559 174.74508994 -187.79360244 176.86941782 -187.79491705 178.99374568 C-187.80632228 198.91196522 -187.79321002 218.8301111 -187.77171558 238.74831855 C-187.75384466 255.8377831 -187.75694878 272.92713897 -187.77539062 290.01660156 C-187.79679832 309.8637143 -187.80522365 329.7107625 -187.79294157 349.55788517 C-187.79166738 351.67438315 -187.7904099 353.79088115 -187.78916931 355.90737915 C-187.78824366 357.46940127 -187.78824366 357.46940127 -187.78729931 359.0629794 C-187.78384611 366.40010547 -187.78967411 373.73719058 -187.79908752 381.0743103 C-187.81030775 390.01624676 -187.80726691 398.95804277 -187.78596455 407.89996314 C-187.77545449 412.46198872 -187.77133157 417.02378016 -187.78456116 421.58580399 C-187.79649179 425.76308862 -187.78991158 429.93992236 -187.76865095 434.11716616 C-187.76418772 435.62714907 -187.76644494 437.13717017 -187.7761541 438.64712846 C-187.82304163 446.54574533 -187.75162909 452.92027793 -183.25390625 459.6796875 C-179.37711154 463.36737027 -176.33734633 464.80266179 -171.0228281 464.80997276 C-169.72174542 464.81540928 -169.72174542 464.81540928 -168.39437824 464.82095563 C-167.44089007 464.81988738 -166.4874019 464.81881913 -165.50502014 464.81771851 C-164.49255814 464.82053979 -163.48009615 464.82336107 -162.43695349 464.82626784 C-159.02835522 464.83463228 -155.61978935 464.83595366 -152.21118164 464.83740234 C-149.77390959 464.84206912 -147.33663841 464.84721245 -144.89936829 464.85279846 C-139.64304197 464.86408981 -134.38672202 464.87256942 -129.13038826 464.87891769 C-120.82440701 464.88923934 -112.51846583 464.90980119 -104.21250916 464.93203735 C-101.37155641 464.93951706 -98.5306035 464.94693078 -95.68965054 464.95432472 C-94.62467242 464.95710057 -94.62467242 464.95710057 -93.5381796 464.9599325 C-85.45555136 464.98086139 -77.3729187 464.99968943 -69.2902832 465.01757812 C-68.55135649 465.01921631 -67.81242977 465.02085449 -67.05111133 465.02254231 C-55.07153738 465.04883801 -43.09196034 465.06747578 -31.11236972 465.08417003 C-18.81768416 465.10158039 -6.52305924 465.13041335 5.77157789 465.1690594 C13.35779196 465.19247771 20.94390719 465.2064556 28.53015769 465.20838703 C34.34049364 465.21074237 40.15070078 465.22858782 45.96098518 465.25225639 C48.34749483 465.2594742 50.73402627 465.26153843 53.12054443 465.25815392 C56.37065349 465.25427993 59.62018045 465.26864686 62.870224 465.28768921 C63.82148145 465.28215951 64.7727389 465.27662982 65.75282234 465.27093256 C72.07402694 465.33516094 72.07402694 465.33516094 75.30083561 466.98934364 C77.66382772 469.75305006 77.74609375 472.12132106 77.74609375 475.6796875 C76.36988258 477.87059784 76.36988258 477.87059784 73.74609375 479.6796875 C70.42314101 480.28069781 67.13448855 480.21886937 63.76547241 480.18762207 C62.74005518 480.19386203 61.71463794 480.200102 60.65814745 480.20653105 C57.21115695 480.22252607 53.76486724 480.20983068 50.31787109 480.19726562 C47.85077501 480.20268403 45.38368215 480.20980509 42.91659546 480.21850586 C36.90317278 480.23488142 30.8900265 480.2324427 24.8766145 480.2208553 C19.98642776 480.21182272 15.09629696 480.21059622 10.20610428 480.21495056 C9.16216151 480.21586996 9.16216151 480.21586996 8.09712899 480.21680793 C6.68322843 480.21808685 5.26932787 480.21938371 3.85542734 480.2206983 C-9.41019201 480.23211028 -22.67570088 480.21898338 -35.94130211 480.19749683 C-47.31199778 480.17964885 -58.68252998 480.18270969 -70.05322266 480.20117188 C-83.26197512 480.22260847 -96.4706305 480.23098673 -109.67939794 480.21872282 C-111.08993934 480.21744867 -112.50048076 480.21619118 -113.91102219 480.21495056 C-114.95197526 480.21402491 -114.95197526 480.21402491 -116.01395769 480.21308056 C-120.89249363 480.20963424 -125.7709678 480.21544096 -130.64949417 480.22486877 C-137.22736681 480.23730106 -143.80497977 480.22836805 -150.3828392 480.20529175 C-152.79424784 480.20001304 -155.20568247 480.20150401 -157.61708069 480.21034241 C-160.91552821 480.22131488 -164.21299742 480.20751215 -167.51138306 480.18762207 C-168.93437617 480.2010064 -168.93437617 480.2010064 -170.38611662 480.21466112 C-179.73614556 480.10572057 -187.62797348 477.18321862 -194.49609375 470.74609375 C-200.15451618 464.09430382 -202.37491532 456.78393236 -202.38812733 448.21835899 C-202.39047956 447.56840409 -202.39283179 446.91844918 -202.3952553 446.24879867 C-202.40193436 444.06179427 -202.40148741 441.87484943 -202.40107727 439.68783569 C-202.40437658 438.10758614 -202.40810228 436.52733743 -202.41221875 434.94708979 C-202.42223927 430.59722771 -202.42595563 426.24737942 -202.42860806 421.89750743 C-202.43251094 417.20885681 -202.44208928 412.52021713 -202.45082092 407.83157349 C-202.47058556 396.504954 -202.48065145 385.17833362 -202.48954871 373.8517012 C-202.49393153 368.51835792 -202.49929835 363.18501562 -202.50453758 357.85167313 C-202.5215497 340.12349593 -202.5360441 322.39531935 -202.54328632 304.66713524 C-202.54519623 300.06633885 -202.54711656 295.46554246 -202.54907227 290.86474609 C-202.54955601 289.72123513 -202.55003975 288.57772417 -202.55053815 287.39956136 C-202.55883929 268.87347558 -202.58417772 250.34745435 -202.61665294 231.82139675 C-202.64971935 212.80311183 -202.6677347 193.78485972 -202.67093056 174.76654589 C-202.67309602 164.08764368 -202.68184999 153.4088356 -202.70739174 142.7299614 C-202.72909297 133.63575913 -202.73715196 124.54167388 -202.72742496 115.44744866 C-202.72287863 110.80823008 -202.72478586 106.16925295 -202.7441864 101.53006744 C-202.76180703 97.27976134 -202.76082935 93.02987302 -202.74528911 88.77956255 C-202.74291137 87.24518894 -202.74724527 85.71078649 -202.75911776 84.17645697 C-202.84394479 72.48610757 -201.44202717 63.16221917 -193.171875 54.43359375 C-185.65212028 47.5570767 -177.63812838 45.4180977 -167.55273438 45.45263672 C-166.82980194 45.45234467 -166.10686951 45.45205261 -165.36203003 45.45175171 C-163.00294446 45.4531308 -160.64418576 45.46862388 -158.28515625 45.484375 C-156.63749362 45.4881102 -154.98982874 45.49095478 -153.34216309 45.49295044 C-149.02837881 45.50054698 -144.71473153 45.52016081 -140.40100098 45.5423584 C-135.99000908 45.56290302 -131.57899481 45.5719705 -127.16796875 45.58203125 C-118.5298854 45.60341086 -109.89191292 45.63749815 -101.25390625 45.6796875 C-101.27420898 44.99769287 -101.29451172 44.31569824 -101.31542969 43.61303711 C-101.33911621 42.26737671 -101.33911621 42.26737671 -101.36328125 40.89453125 C-101.38358398 40.00628662 -101.40388672 39.11804199 -101.42480469 38.20288086 C-101.11136065 33.57510357 -98.57364362 30.91428052 -95.31640625 27.8671875 C-90.79796275 25.26565943 -85.63666084 25.48549326 -80.546875 25.36328125 C-79.45878288 25.3321096 -79.45878288 25.3321096 -78.34870911 25.30030823 C-76.04636512 25.23526535 -73.74391343 25.17613977 -71.44140625 25.1171875 C-69.87433811 25.07395915 -68.3072806 25.03034352 -66.74023438 24.98632812 C-62.91156689 24.87963082 -59.08279175 24.77823781 -55.25390625 24.6796875 C-54.86755005 23.79434326 -54.86755005 23.79434326 -54.47338867 22.89111328 C-49.08377716 10.63528436 -43.81504899 1.56601382 -30.94140625 -3.7578125 C-20.03239061 -7.2724326 -9.8259072 -5.75590404 0 0 Z " fill="#010102" transform="translate(220.25390625,5.3203125)"/>
<path d="M0 0 C2.23445886 1.27954691 2.23445886 1.27954691 4.32421875 0.96484375 C8.07152284 -0.59831739 11.61714158 -2.52781986 15.20703125 -4.41796875 C27.33803703 -10.05716626 40.88385066 -8.91844992 53.375 -4.890625 C66.92223013 0.14515296 76.79995252 11.02177156 82.75 23.984375 C87.96575061 36.27540471 86.47567127 51.11748426 82.25 63.45703125 C76.76754446 75.21122956 66.72114876 84.17708954 57.6640625 93.1484375 C56.24480646 94.56462965 54.82614594 95.98141884 53.40805054 97.39877319 C50.45578358 100.34646848 47.49871466 103.28922293 44.53759766 106.22802734 C40.73757697 109.99955966 36.9464807 113.77990847 33.1584568 117.5634861 C30.23883667 120.47895996 27.31639685 123.3915923 24.39289474 126.30317307 C22.99295028 127.69741629 21.5934758 129.09213158 20.19447708 130.48732376 C18.24895748 132.42599752 16.30009459 134.36124127 14.35009766 136.29541016 C13.7714093 136.87298065 13.19272095 137.45055115 12.59649658 138.04562378 C7.69218063 142.8970708 7.69218063 142.8970708 3.67002869 143.54536438 C-1.08435276 142.91627735 -3.08153252 140.48148323 -6.34545898 137.13354492 C-7.31014099 136.17981491 -7.31014099 136.17981491 -8.29431152 135.20681763 C-10.41831713 133.09903173 -12.51982138 130.97027537 -14.62109375 128.83984375 C-16.09688299 127.36301663 -17.57371089 125.88722677 -19.05152893 124.41242981 C-22.15010538 121.31367382 -25.23808053 118.20483632 -28.31860352 115.08813477 C-32.2467097 111.11489189 -36.19631555 107.163916 -40.15380764 103.21996593 C-43.20974307 100.17075504 -46.2555341 97.11157095 -49.29829597 94.04921913 C-50.74955974 92.59031037 -52.20346549 91.13402442 -53.66015434 89.68053246 C-68.78734566 74.5588917 -77.90809663 62.09820213 -77.94189453 40.12768555 C-77.84345491 33.09168333 -76.98574185 27.38066586 -73.625 21.109375 C-72.98884766 19.84287109 -72.98884766 19.84287109 -72.33984375 18.55078125 C-65.97276152 6.8984887 -56.11465731 -1.3493319 -43.68359375 -5.98828125 C-28.39666922 -10.36469773 -13.4070324 -8.37939525 0 0 Z " fill="#DD636D" transform="translate(134.625,111.890625)"/>
<path d="M0 0 C0.99 0.33 1.98 0.66 3 1 C3 18.49 3 35.98 3 54 C-4.26 54.33 -11.52 54.66 -19 55 C-23.37609461 59.37609461 -23.50482931 59.76561187 -23.609375 65.515625 C-23.64160156 66.76601563 -23.67382812 68.01640625 -23.70703125 69.3046875 C-23.72121094 70.60664063 -23.73539062 71.90859375 -23.75 73.25 C-23.79447266 75.22613281 -23.79447266 75.22613281 -23.83984375 77.2421875 C-23.91055388 80.49485343 -23.96324786 83.74680193 -24 87 C-25.24088379 87.01401855 -25.24088379 87.01401855 -26.50683594 87.02832031 C-30.25516415 87.08200319 -34.00224162 87.1656571 -37.75 87.25 C-39.05195313 87.26417969 -40.35390625 87.27835937 -41.6953125 87.29296875 C-42.94570313 87.32519531 -44.19609375 87.35742188 -45.484375 87.390625 C-46.63647461 87.41157227 -47.78857422 87.43251953 -48.97558594 87.45410156 C-52.02113296 87.81395827 -52.02113296 87.81395827 -54.37402344 89.46191406 C-56.82259328 93.28403599 -56.5729932 96.76635005 -56.53125 101.21875 C-56.5350769 102.11364136 -56.53890381 103.00853271 -56.54284668 103.93054199 C-56.5455652 105.82007982 -56.53820816 107.70965532 -56.52148438 109.59912109 C-56.50007323 112.4901119 -56.52128734 115.37861767 -56.546875 118.26953125 C-56.54423171 120.10677631 -56.53910671 121.94401983 -56.53125 123.78125 C-56.53934692 124.64488159 -56.54744385 125.50851318 -56.55578613 126.39831543 C-56.49755086 130.12853596 -56.416044 132.35057156 -54.37402344 135.53808594 C-51.27340119 137.44743662 -49.11751375 137.54331793 -45.484375 137.609375 C-44.23398437 137.64160156 -42.98359375 137.67382812 -41.6953125 137.70703125 C-40.39335937 137.72121094 -39.09140625 137.73539063 -37.75 137.75 C-36.43257813 137.77964844 -35.11515625 137.80929687 -33.7578125 137.83984375 C-30.50514657 137.91055388 -27.25319807 137.96324786 -24 138 C-23.9906543 138.82725586 -23.98130859 139.65451172 -23.97167969 140.50683594 C-23.91799681 144.25516415 -23.8343429 148.00224162 -23.75 151.75 C-23.73582031 153.05195313 -23.72164063 154.35390625 -23.70703125 155.6953125 C-23.67480469 156.94570313 -23.64257812 158.19609375 -23.609375 159.484375 C-23.5779541 161.21252441 -23.5779541 161.21252441 -23.54589844 162.97558594 C-23.19472189 166.56562619 -23.19472189 166.56562619 -19 170 C-11.74 170.33 -4.48 170.66 3 171 C3 192.12 3 213.24 3 235 C0 236 0 236 -3.40625 234.55859375 C-4.77646608 233.86254149 -6.14076535 233.15476009 -7.5 232.4375 C-8.21978027 232.06544434 -8.93956055 231.69338867 -9.68115234 231.31005859 C-11.1294121 230.55859391 -12.57525962 229.80246043 -14.01855469 229.04150391 C-15.67328115 228.1717327 -17.33926012 227.32341274 -19.0078125 226.48046875 C-56.1104133 207.26464416 -82.42972903 172.93390785 -95.21826172 133.60400391 C-97.47006742 126.10314208 -99.04175843 118.45359768 -100.47998047 110.76123047 C-100.8039536 109.04097878 -101.14172087 107.32319641 -101.50048828 105.60986328 C-104.27752969 92.30476212 -104.25973242 78.970641 -104.25 65.4375 C-104.24940582 64.51931488 -104.24881165 63.60112976 -104.24819946 62.65512085 C-104.22370368 52.73056145 -104.08771839 42.87673592 -103 33 C-102.31599121 32.98018066 -101.63198242 32.96036133 -100.92724609 32.93994141 C-65.07367705 31.84871961 -30.78964053 24.85109858 -2.35546875 1.5546875 C-1.57816406 1.04164063 -0.80085938 0.52859375 0 0 Z " fill="#8298FC" transform="translate(373,261)"/>
<path d="M0 0 C0.89332031 0.82951172 0.89332031 0.82951172 1.8046875 1.67578125 C26.15193143 23.5836096 60.69011771 30.3660101 92.33154297 29.37817383 C93.42611816 29.35263428 94.52069336 29.32709473 95.6484375 29.30078125 C96.61974609 29.26597656 97.59105469 29.23117187 98.59179688 29.1953125 C102.13098094 29.5775138 104.77540424 30.95899799 107.3046875 33.48828125 C111.3090213 58.85880491 111.08356621 87.09893991 107.3046875 112.48828125 C107.17578125 113.36371582 107.046875 114.23915039 106.9140625 115.14111328 C103.73494393 135.9194496 98.05110007 155.38137051 89.3046875 174.48828125 C88.81226563 175.58527344 88.31984375 176.68226563 87.8125 177.8125 C70.36527819 214.72766705 37.23854067 242.42051333 0.6171875 259.11328125 C-0.12523193 259.45649414 -0.86765137 259.79970703 -1.63256836 260.15332031 C-2.33776611 260.46237305 -3.04296387 260.77142578 -3.76953125 261.08984375 C-4.38401123 261.36135254 -4.99849121 261.63286133 -5.6315918 261.91259766 C-10.67675194 263.31996636 -14.52091629 262.45781014 -19.15234375 260.25 C-20.6852002 259.52272705 -20.6852002 259.52272705 -22.24902344 258.78076172 C-23.32442383 258.25111816 -24.39982422 257.72147461 -25.5078125 257.17578125 C-26.6205957 256.63324707 -27.73337891 256.09071289 -28.87988281 255.53173828 C-38.30777837 250.84773762 -47.13996926 245.61246231 -55.6953125 239.48828125 C-56.30858398 239.05241699 -56.92185547 238.61655273 -57.55371094 238.16748047 C-63.58254342 233.83738872 -69.15661199 229.45358851 -73.84765625 223.64453125 C-75.70749251 221.47406695 -77.71389012 219.53322131 -79.79077148 217.57250977 C-113.76781236 185.15738234 -128.26173087 135.27547997 -129.6953125 89.48828125 C-129.83883503 82.75961802 -129.8754527 76.03080793 -129.8828125 69.30078125 C-129.88457993 68.05430817 -129.88457993 68.05430817 -129.88638306 66.78265381 C-129.88163352 37.25149506 -129.88163352 37.25149506 -125.6953125 31.48828125 C-122.72750203 30.00437601 -120.03300663 30.35999679 -116.72265625 30.34765625 C-115.26316655 30.33371364 -113.80369283 30.3180151 -112.34423828 30.30078125 C-111.19136322 30.28724609 -111.19136322 30.28724609 -110.01519775 30.2734375 C-74.85920616 29.75464952 -40.31107932 21.10404807 -14.6953125 -4.51171875 C-8.52592658 -6.52035603 -4.5445704 -4.05241646 0 0 Z M-14.24609375 12.9453125 C-15.15746094 13.72261719 -16.06882812 14.49992187 -17.0078125 15.30078125 C-44.99034844 37.92430179 -79.84613078 43.47851697 -114.6953125 44.48828125 C-115.88450803 55.28645325 -115.93829153 66.0762344 -115.9453125 76.92578125 C-115.94598724 77.8640274 -115.94666199 78.80227356 -115.94735718 79.76895142 C-115.93294501 92.37986872 -115.77313223 104.7371642 -113.18261719 117.12890625 C-112.64745193 119.72000695 -112.19151104 122.31983211 -111.734375 124.92578125 C-103.86439735 167.36122346 -80.97982841 204.57705349 -45.29296875 229.11328125 C-40.20716893 232.51937997 -34.9592102 235.58096977 -29.56201172 238.47216797 C-27.54541984 239.56987336 -25.5620198 240.71825796 -23.57421875 241.8671875 C-22.17823091 242.63879859 -20.78111638 243.40837524 -19.3828125 244.17578125 C-18.43269287 244.73966553 -18.43269287 244.73966553 -17.46337891 245.31494141 C-14.67059446 246.79577676 -12.71112315 247.63383879 -9.52978516 247.17797852 C-7.15445557 246.43417544 -4.95525484 245.53075758 -2.6953125 244.48828125 C-1.96272217 244.15675049 -1.23013184 243.82521973 -0.4753418 243.48364258 C16.65829369 235.34030839 31.76228663 224.72420629 45.3046875 211.48828125 C46.22636719 210.62847656 47.14804687 209.76867187 48.09765625 208.8828125 C78.03964123 180.29222881 93.27566285 136.14064749 94.39065552 95.34268188 C94.41913634 92.06259295 94.41746989 88.78407929 94.40234375 85.50390625 C94.4009288 84.32229919 94.39951385 83.14069214 94.39805603 81.92327881 C94.39251367 78.19491917 94.37997231 74.46662235 94.3671875 70.73828125 C94.36216504 68.19140712 94.35760345 65.64453205 94.35351562 63.09765625 C94.3425632 56.89451027 94.32588365 50.69140025 94.3046875 44.48828125 C93.5866394 44.46224319 92.86859131 44.43620514 92.12878418 44.40937805 C88.84356101 44.28868929 85.5585052 44.16390878 82.2734375 44.0390625 C81.14389648 43.99817505 80.01435547 43.9572876 78.85058594 43.91516113 C70.86465248 43.60767355 63.1596023 43.02754603 55.3046875 41.48828125 C54.01304687 41.24464844 52.72140625 41.00101562 51.390625 40.75 C31.01420221 36.60203643 12.13809738 27.86173542 -4.29296875 15.15234375 C-9.00830028 11.57295074 -9.00830028 11.57295074 -14.24609375 12.9453125 Z " fill="#010203" transform="translate(384.6953125,249.51171875)"/>
<path d="M0 0 C0.96289444 -0.00619858 1.92578888 -0.01239716 2.91786194 -0.01878357 C4.95458972 -0.02588852 6.9913755 -0.02269599 9.02807617 -0.01000977 C12.14545649 0.00384094 15.25982723 -0.03018647 18.37695312 -0.06835938 C20.35546949 -0.0693107 22.33398961 -0.06745106 24.3125 -0.0625 C25.24488998 -0.07575821 26.17727997 -0.08901642 27.13792419 -0.10267639 C33.52262252 -0.01079722 33.52262252 -0.01079722 36.81762695 2.70605469 C38.46579445 6.06138577 38.68396711 8.23225846 38.61328125 11.9609375 C38.60039062 13.16298828 38.5875 14.36503906 38.57421875 15.60351562 C38.54070312 16.84939453 38.5071875 18.09527344 38.47265625 19.37890625 C38.45460938 20.64412109 38.4365625 21.90933594 38.41796875 23.21289062 C38.37089541 26.3314996 38.30514719 29.44856598 38.22265625 32.56640625 C39.41024536 32.53498535 39.41024536 32.53498535 40.62182617 32.50292969 C44.21780643 32.41965158 47.81358361 32.36770734 51.41015625 32.31640625 C52.65603516 32.28289062 53.90191406 32.249375 55.18554688 32.21484375 C56.98862305 32.19550781 56.98862305 32.19550781 58.828125 32.17578125 C60.48557739 32.14436035 60.48557739 32.14436035 62.17651367 32.11230469 C66.14594109 32.70404429 67.6455393 33.46317321 70.22265625 36.56640625 C70.95798361 39.78588252 70.92342858 42.93155601 70.88671875 46.22265625 C70.89150238 47.1619397 70.89628601 48.10122314 70.9012146 49.06896973 C70.90461346 51.05267005 70.89541195 53.0364264 70.87451172 55.02001953 C70.84774549 58.05628357 70.87425945 61.08885093 70.90625 64.125 C70.9029459 66.05339358 70.89653966 67.98178485 70.88671875 69.91015625 C70.90190048 71.27122498 70.90190048 71.27122498 70.91738892 72.65979004 C70.80194447 78.86885686 70.80194447 78.86885686 68.08081055 82.14550781 C64.72411252 83.81425151 62.56645671 84.0279001 58.828125 83.95703125 C57.62607422 83.94414062 56.42402344 83.93125 55.18554688 83.91796875 C53.93966797 83.88445312 52.69378906 83.8509375 51.41015625 83.81640625 C50.14494141 83.79835938 48.87972656 83.7803125 47.57617188 83.76171875 C44.4575629 83.71464541 41.34049652 83.64889719 38.22265625 83.56640625 C38.25407715 84.75399536 38.25407715 84.75399536 38.28613281 85.96557617 C38.36941092 89.56155643 38.42135516 93.15733361 38.47265625 96.75390625 C38.50617188 97.99978516 38.5396875 99.24566406 38.57421875 100.52929688 C38.59355469 102.33237305 38.59355469 102.33237305 38.61328125 104.171875 C38.64470215 105.82932739 38.64470215 105.82932739 38.67675781 107.52026367 C38.11937715 111.25920909 36.82875045 112.88307426 34.22265625 115.56640625 C29.09084509 118.13231183 20.96987458 116.87984537 15.2565918 116.91650391 C13.36421406 116.93305957 11.47189875 116.9603446 9.57983398 116.99853516 C6.84976811 117.05335097 4.12116735 117.07518443 1.390625 117.08984375 C0.54775436 117.11251312 -0.29511627 117.1351825 -1.16352844 117.15853882 C-5.37143219 117.14343463 -7.27821492 116.91409823 -10.81982422 114.44702148 C-13.18540335 110.96592044 -13.36102416 109.13160829 -13.265625 104.953125 C-13.24951172 103.70595703 -13.23339844 102.45878906 -13.21679688 101.17382812 C-13.15395508 99.2334668 -13.15395508 99.2334668 -13.08984375 97.25390625 C-13.06728516 95.94099609 -13.04472656 94.62808594 -13.02148438 93.27539062 C-12.962621 90.03790495 -12.88043179 86.80273625 -12.77734375 83.56640625 C-13.59936279 83.59259033 -14.42138184 83.61877441 -15.26831055 83.64575195 C-19.00029313 83.74982065 -22.73197035 83.81476753 -26.46484375 83.87890625 C-27.75841797 83.92080078 -29.05199219 83.96269531 -30.38476562 84.00585938 C-32.25551758 84.0300293 -32.25551758 84.0300293 -34.1640625 84.0546875 C-35.31092529 84.08087158 -36.45778809 84.10705566 -37.6394043 84.1340332 C-41.93048272 83.35781307 -43.28756752 82.13412392 -45.77734375 78.56640625 C-46.48321242 75.46313353 -46.47894701 72.45770528 -46.44140625 69.28515625 C-46.44618988 68.39405151 -46.45097351 67.50294678 -46.4559021 66.58483887 C-46.45929647 64.70546701 -46.45012637 62.82603575 -46.42919922 60.94677734 C-46.40242531 58.07515427 -46.42896086 55.20743946 -46.4609375 52.3359375 C-46.45763332 50.50650182 -46.45122691 48.67706856 -46.44140625 46.84765625 C-46.4515274 45.992323 -46.46164856 45.13698975 -46.47207642 44.2557373 C-46.38941449 40.03717989 -46.12245075 38.06092633 -43.64916992 34.5168457 C-40.17395129 32.15660413 -38.33519093 31.98289376 -34.1640625 32.078125 C-32.91689453 32.09423828 -31.66972656 32.11035156 -30.38476562 32.12695312 C-29.09119141 32.16884766 -27.79761719 32.21074219 -26.46484375 32.25390625 C-25.15193359 32.27646484 -23.83902344 32.29902344 -22.48632812 32.32226562 C-19.24884245 32.381129 -16.01367375 32.46331821 -12.77734375 32.56640625 C-12.7930542 31.73915039 -12.80876465 30.91189453 -12.82495117 30.05957031 C-12.88730679 26.31191848 -12.92633721 22.5643758 -12.96484375 18.81640625 C-12.98998047 17.51445312 -13.01511719 16.2125 -13.04101562 14.87109375 C-13.05068359 13.62070312 -13.06035156 12.3703125 -13.0703125 11.08203125 C-13.08602295 9.92993164 -13.1017334 8.77783203 -13.11791992 7.59082031 C-12.77734375 4.56640625 -12.77734375 4.56640625 -11.87011719 2.19458008 C-8.32941443 -0.56008006 -4.35319636 -0.02310676 0 0 Z " fill="#030305" transform="translate(361.77734375,315.43359375)"/>
<path d="M0 0 C2.23445886 1.27954691 2.23445886 1.27954691 4.32421875 0.96484375 C8.07152284 -0.59831739 11.61714158 -2.52781986 15.20703125 -4.41796875 C27.33803703 -10.05716626 40.88385066 -8.91844992 53.375 -4.890625 C66.92223013 0.14515296 76.79995252 11.02177156 82.75 23.984375 C87.96575061 36.27540471 86.47567127 51.11748426 82.25 63.45703125 C76.76754446 75.21122956 66.72114876 84.17708954 57.6640625 93.1484375 C56.24480646 94.56462965 54.82614594 95.98141884 53.40805054 97.39877319 C50.45578358 100.34646848 47.49871466 103.28922293 44.53759766 106.22802734 C40.73757697 109.99955966 36.9464807 113.77990847 33.1584568 117.5634861 C30.23883667 120.47895996 27.31639685 123.3915923 24.39289474 126.30317307 C22.99295028 127.69741629 21.5934758 129.09213158 20.19447708 130.48732376 C18.24895748 132.42599752 16.30009459 134.36124127 14.35009766 136.29541016 C13.7714093 136.87298065 13.19272095 137.45055115 12.59649658 138.04562378 C7.69218063 142.8970708 7.69218063 142.8970708 3.67002869 143.54536438 C-1.08435276 142.91627735 -3.08153252 140.48148323 -6.34545898 137.13354492 C-7.31014099 136.17981491 -7.31014099 136.17981491 -8.29431152 135.20681763 C-10.41831713 133.09903173 -12.51982138 130.97027537 -14.62109375 128.83984375 C-16.09688299 127.36301663 -17.57371089 125.88722677 -19.05152893 124.41242981 C-22.15010538 121.31367382 -25.23808053 118.20483632 -28.31860352 115.08813477 C-32.2467097 111.11489189 -36.19631555 107.163916 -40.15380764 103.21996593 C-43.20974307 100.17075504 -46.2555341 97.11157095 -49.29829597 94.04921913 C-50.74955974 92.59031037 -52.20346549 91.13402442 -53.66015434 89.68053246 C-68.78734566 74.5588917 -77.90809663 62.09820213 -77.94189453 40.12768555 C-77.84345491 33.09168333 -76.98574185 27.38066586 -73.625 21.109375 C-72.98884766 19.84287109 -72.98884766 19.84287109 -72.33984375 18.55078125 C-65.97276152 6.8984887 -56.11465731 -1.3493319 -43.68359375 -5.98828125 C-28.39666922 -10.36469773 -13.4070324 -8.37939525 0 0 Z M-42.625 9.109375 C-43.28886719 9.46128906 -43.95273438 9.81320313 -44.63671875 10.17578125 C-53.26522781 15.15566362 -60.56652023 22.53102272 -63.23828125 32.3671875 C-64.61316728 42.11637934 -65.13194552 52.59400553 -59.625 61.109375 C-59.05996765 62.01398468 -58.4949353 62.91859436 -57.91278076 63.85061646 C-55.45579683 67.35039122 -52.78750327 70.21450637 -49.75488281 73.20654297 C-49.17883804 73.78287979 -48.60279327 74.35921661 -48.0092926 74.95301819 C-46.12027592 76.84065103 -44.22429377 78.72111657 -42.328125 80.6015625 C-41.01061041 81.9153436 -39.69353917 83.22956946 -38.37689209 84.54421997 C-34.92239901 87.99110309 -31.46194057 91.43193572 -28.00018311 94.871521 C-24.46393032 98.38725845 -20.93338299 101.90871521 -17.40234375 105.4296875 C-10.48211823 112.32850965 -3.55557388 119.22094999 3.375 126.109375 C14.09248904 117.26744654 23.73399907 107.13096131 33.58984375 97.35449219 C36.10407119 94.86251024 38.62768063 92.38065906 41.16015625 89.90722656 C44.24453533 86.89456588 47.31078217 83.86447504 50.36560059 80.82185364 C51.52040976 79.67733022 52.68113928 78.53874337 53.8482666 77.40678406 C62.27483095 69.2212214 70.91654945 59.67343691 72.19921875 47.41015625 C71.76311063 34.68825928 69.90765658 25.77403505 60.75390625 16.2734375 C57.54282544 13.35235578 54.22802146 11.08951451 50.375 9.109375 C49.76269531 8.75875 49.15039062 8.408125 48.51953125 8.046875 C40.6668643 4.61401513 29.83077619 4.81431384 21.9375 7.859375 C17.06403433 10.09896117 12.84720023 12.81671138 8.8125 16.359375 C5.89185535 18.45624808 4.89725669 18.56501576 1.375 18.109375 C-1.30859375 16.46484375 -1.30859375 16.46484375 -4.0625 14.296875 C-14.95397706 5.79129761 -29.79254518 2.14797794 -42.625 9.109375 Z " fill="#040303" transform="translate(134.625,111.890625)"/>
<path d="M0 0 C6.81301214 4.91170642 9.44961154 10.4697893 12.4765625 18.19140625 C15.01795759 23.95463446 19.05071475 26.5573318 24.6875 28.9375 C27.43315354 29.24972245 29.96691226 29.42461779 32.7109375 29.44921875 C33.83020126 29.47614555 33.83020126 29.47614555 34.97207642 29.50361633 C37.3354949 29.55743105 39.69871486 29.59152067 42.0625 29.625 C43.67320454 29.65819872 45.28388298 29.69269072 46.89453125 29.72851562 C50.82554479 29.8155566 54.7556791 29.87586605 58.6875 29.9375 C58.6875 38.1875 58.6875 46.4375 58.6875 54.9375 C13.8075 54.9375 -31.0725 54.9375 -77.3125 54.9375 C-77.3125 46.6875 -77.3125 38.4375 -77.3125 29.9375 C-74.9509375 29.91171875 -72.589375 29.8859375 -70.15625 29.859375 C-67.84591214 29.82086159 -65.5357905 29.77573176 -63.22558594 29.72998047 C-61.63129153 29.70191418 -60.03686168 29.68062887 -58.44238281 29.66650391 C-44.65252271 29.708219 -44.65252271 29.708219 -33.0625 22.8125 C-31.02028554 19.45743339 -29.70746503 16.030277 -28.3046875 12.37109375 C-25.88256999 6.43023073 -22.85118893 3.11930002 -17.3125 -0.0625 C-11.70864002 -1.93045333 -5.60508879 -1.79785867 0 0 Z " fill="#8298FC" transform="translate(210.3125,16.0625)"/>
<path d="M0 0 C1.32 0 2.64 0 4 0 C4 5.94 4 11.88 4 18 C1.69 18.66 -0.62 19.32 -3 20 C-4.93961917 21.31724809 -4.93961917 21.31724809 -6.5 23 C-31.26325412 45.86204459 -64.02860982 53.35673913 -96.75390625 53.51123047 C-99.05238822 53.5268503 -101.35016627 53.55974134 -103.6484375 53.59375 C-104.34520599 53.59072876 -105.04197449 53.58770752 -105.75985718 53.58459473 C-109.58898161 53.64366695 -109.58898161 53.64366695 -112.89697266 55.40039062 C-118.847575 64.02994941 -116.20320103 81.52583045 -116.1875 91.8125 C-116.18623108 92.67027039 -116.18496216 93.52804077 -116.18365479 94.4118042 C-116.02655405 150.33057582 -102.98645469 203.10339054 -62.45703125 243.55566406 C-61.00773868 244.99284815 -59.54901884 246.42050695 -58.08984375 247.84765625 C-56 250 -56 250 -56 251 C-58.93902349 251.13481759 -61.87189559 251.23399416 -64.8125 251.3125 C-66.06256836 251.3753418 -66.06256836 251.3753418 -67.33789062 251.43945312 C-69.65302087 251.48594168 -71.73066573 251.46566762 -74 251 C-75.76171875 248.79296875 -75.76171875 248.79296875 -77 246 C-78.64643416 244.31334351 -80.31446012 242.64757727 -82 241 C-99.17488587 220.74770284 -110.60375135 197.24115668 -118.27319336 171.96679688 C-119.01444891 169.72710328 -119.01444891 169.72710328 -121 167 C-121.34375 165.08984375 -121.34375 165.08984375 -121.5 162.9375 C-121.88767148 158.6237737 -122.66517132 154.48853002 -123.59765625 150.26171875 C-124 148 -124 148 -124 144 C-124.66 143.67 -125.32 143.34 -126 143 C-125.9690625 141.576875 -125.9690625 141.576875 -125.9375 140.125 C-125.77448174 137.09333717 -125.77448174 137.09333717 -127 135 C-127.14049851 133.36923953 -127.22570201 131.73351503 -127.28125 130.09765625 C-127.33732422 128.63875977 -127.33732422 128.63875977 -127.39453125 127.15039062 C-127.42933594 126.13138672 -127.46414062 125.11238281 -127.5 124.0625 C-127.5688888 122.05324328 -127.6416358 120.0441141 -127.71875 118.03515625 C-127.74904297 117.1419165 -127.77933594 116.24867676 -127.81054688 115.32836914 C-127.91962169 112.84405396 -127.91962169 112.84405396 -129 110 C-129.27198713 105.10958899 -129.24403783 100.20972739 -129.25 95.3125 C-129.25250763 94.23779953 -129.25250763 94.23779953 -129.25506592 93.14138794 C-129.25678968 80.78255216 -128.27750541 68.77413641 -126.38916016 56.55029297 C-125.91285829 53.42893204 -125.49881047 50.30153359 -125.09448242 47.17016602 C-124.74042436 44.44529841 -124.37023055 41.72271191 -124 39 C-123.1013623 39.06928711 -122.20272461 39.13857422 -121.27685547 39.20996094 C-90.40924734 41.49162928 -90.40924734 41.49162928 -60 37 C-58.93217285 36.70996094 -58.93217285 36.70996094 -57.84277344 36.4140625 C-35.60534192 30.17872904 -17.32276238 18.19816114 -1 2 C-0.67 1.34 -0.34 0.68 0 0 Z " fill="#CDE1EF" transform="translate(372,227)"/>
<path d="M0 0 C7.26 0 14.52 0 22 0 C22.05607422 2.85398437 22.05607422 2.85398437 22.11328125 5.765625 C22.17893419 8.2604366 22.24538175 10.75522739 22.3125 13.25 C22.34633789 15.13138672 22.34633789 15.13138672 22.38085938 17.05078125 C22.41630859 18.25605469 22.45175781 19.46132813 22.48828125 20.703125 C22.51446533 21.81333008 22.54064941 22.92353516 22.56762695 24.06738281 C23.05686867 27.38571794 23.47011344 28.7902858 26 31 C29.09010736 31.645369 29.09010736 31.645369 32.63671875 31.609375 C33.93544922 31.64160156 35.23417969 31.67382812 36.57226562 31.70703125 C37.94400595 31.72177586 39.31575093 31.73609331 40.6875 31.75 C42.07100111 31.77815875 43.45446744 31.80808608 44.83789062 31.83984375 C48.22494098 31.91065317 51.61247519 31.9575764 55 32 C55 39.59 55 47.18 55 55 C52.92976563 55.04898438 50.85953125 55.09796875 48.7265625 55.1484375 C46.72426441 55.20405689 44.72196754 55.25974397 42.71972656 55.31738281 C41.32691428 55.35569327 39.93400235 55.39054259 38.54101562 55.421875 C36.54013692 55.46747907 34.53957854 55.52651623 32.5390625 55.5859375 C31.33459473 55.6173584 30.13012695 55.6487793 28.88916016 55.68115234 C25.8739982 55.70915226 25.8739982 55.70915226 24 58 C23.62677573 61.10756015 23.62677573 61.10756015 23.5859375 64.7578125 C23.56657135 65.42086395 23.5472052 66.08391541 23.5272522 66.76705933 C23.46744046 68.88624177 23.42106612 71.0054785 23.375 73.125 C23.33682155 74.56122169 23.29776989 75.99742045 23.2578125 77.43359375 C23.16009181 80.95561029 23.08054124 84.47738072 23 88 C15.41 88 7.82 88 0 88 C-0.03738281 85.94136719 -0.07476562 83.88273437 -0.11328125 81.76171875 C-0.16195717 79.76600608 -0.21073607 77.77029443 -0.26245117 75.7746582 C-0.29568549 74.38870623 -0.32372226 73.00261939 -0.34643555 71.61645508 C-0.38000617 69.62293157 -0.43388 67.62978259 -0.48828125 65.63671875 C-0.51446533 64.43748779 -0.54064941 63.23825684 -0.56762695 62.00268555 C-0.79399739 59.07366436 -0.79399739 59.07366436 -2.1171875 57.1171875 C-4.94265109 55.44066761 -7.37086783 55.55958804 -10.63671875 55.48828125 C-11.93544922 55.45283203 -13.23417969 55.41738281 -14.57226562 55.38085938 C-15.94400517 55.3577595 -17.3157501 55.3349771 -18.6875 55.3125 C-20.07099607 55.27932458 -21.45446129 55.24483469 -22.83789062 55.20898438 C-26.22496933 55.1263727 -29.61247246 55.06151428 -33 55 C-33 47.41 -33 39.82 -33 32 C-17.655 31.505 -17.655 31.505 -2 31 C-1.09274139 27.37096557 -0.80620862 24.41660383 -0.68359375 20.703125 C-0.62075195 18.89521484 -0.62075195 18.89521484 -0.55664062 17.05078125 C-0.51732422 15.79652344 -0.47800781 14.54226563 -0.4375 13.25 C-0.39431641 11.98027344 -0.35113281 10.71054687 -0.30664062 9.40234375 C-0.20060345 6.2683562 -0.09980152 3.13419232 0 0 Z " fill="#DFEDF7" transform="translate(363,330)"/>
<path d="M0 0 C0.78393192 -0.00623996 1.56786385 -0.01247993 2.37555128 -0.01890898 C5.00511285 -0.03487705 7.63375232 -0.02222017 10.26332092 -0.00964355 C12.14740541 -0.01506303 14.03148566 -0.02218471 15.91555786 -0.03088379 C21.03543353 -0.04914201 26.15498732 -0.04203894 31.27486873 -0.02936745 C36.62971674 -0.01925125 41.98453691 -0.02862942 47.33938599 -0.03491211 C56.33361262 -0.04219316 65.32770796 -0.03258942 74.32191467 -0.0135498 C84.72276747 0.00821316 95.12330657 0.00117353 105.52415174 -0.02085543 C114.449954 -0.03900423 123.37566179 -0.04157008 132.30147654 -0.03110075 C137.63422288 -0.02486213 142.96682175 -0.02404023 148.29955864 -0.0372467 C153.31389619 -0.04879674 158.32782921 -0.04079482 163.34212303 -0.01766968 C165.18317238 -0.01237779 167.02425574 -0.01390455 168.8652916 -0.02272034 C171.37737042 -0.03364082 173.88815057 -0.01995534 176.40014648 0 C177.12991587 -0.00892289 177.85968526 -0.01784577 178.61156887 -0.02703905 C182.17490145 0.02792038 184.16940724 0.44919569 187.21987247 2.35218048 C189.26356506 4.50793457 189.26356506 4.50793457 189.82606506 7.50793457 C189.12369926 11.25388553 188.29503681 12.22706768 185.26356506 14.50793457 C182.53494566 14.9009026 180.20948424 15.04890474 177.48243713 15.01586914 C176.29935557 15.02522908 176.29935557 15.02522908 175.09237337 15.03477812 C172.44666018 15.05074671 169.80186338 15.03808913 167.15614319 15.0255127 C165.26058412 15.03093211 163.36502927 15.03805375 161.46948242 15.04675293 C156.31868378 15.06501071 151.16820509 15.05790859 146.01740074 15.04523659 C140.63138836 15.03512165 135.24540369 15.04449807 129.85939026 15.05078125 C120.81388929 15.05806204 111.76851888 15.04845859 102.72303772 15.02941895 C92.2596816 15.00764942 81.79663723 15.01470048 71.33328867 15.03672457 C62.35569795 15.05486623 53.37820117 15.05744292 44.40059805 15.04696989 C39.03602582 15.04072818 33.67160021 15.03991796 28.30703735 15.05311584 C23.26397646 15.06465574 18.22131818 15.05668261 13.17830086 15.03353882 C11.32554354 15.02824178 9.47275243 15.02978246 7.62000847 15.03858948 C5.09444318 15.04948949 2.57017518 15.03584948 0.04469299 15.01586914 C-0.69188018 15.02479203 -1.42845336 15.03371491 -2.18734694 15.04290819 C-5.59573323 14.99045434 -7.43254166 14.73621882 -10.19150543 12.66368866 C-11.73643494 10.50793457 -11.73643494 10.50793457 -12.23643494 7.50793457 C-11.06471766 0.47763088 -6.25291871 -0.07622142 0 0 Z " fill="#020202" transform="translate(64.73643493652344,392.4920654296875)"/>
<path d="M0 0 C1.13302059 -0.00935994 1.13302059 -0.00935994 2.28893048 -0.01890898 C4.82176715 -0.03487283 7.35364594 -0.02222198 9.88648987 -0.00964355 C11.70160992 -0.01506323 13.51672558 -0.02218502 15.33183289 -0.03088379 C20.26370206 -0.04913977 25.19523703 -0.04203988 30.12711215 -0.02936745 C35.28576998 -0.01925002 40.44439893 -0.02862977 45.60305786 -0.03491211 C54.26773726 -0.04219283 62.93228037 -0.03259033 71.59693909 -0.0135498 C81.61607495 0.00821286 91.63488515 0.00117364 101.6540131 -0.02085543 C110.2528552 -0.03900549 118.85159923 -0.04156946 127.45045429 -0.03110075 C132.58758288 -0.02486278 137.7245584 -0.02403841 142.86167717 -0.0372467 C147.6921666 -0.04879858 152.52223615 -0.04079153 157.35268021 -0.01766968 C159.12600189 -0.01237875 160.89935889 -0.01390292 162.67266655 -0.02272034 C165.09280219 -0.03364477 167.51159091 -0.01995096 169.93164062 0 C170.63417337 -0.00892289 171.33670612 -0.01784577 172.06052774 -0.02703905 C175.56306783 0.02900333 177.47473328 0.47369404 180.46901035 2.35218048 C182.52931213 4.50793457 182.52931213 4.50793457 183.09181213 7.50793457 C182.39093728 11.24593377 181.54489841 12.22354069 178.52931213 14.50793457 C175.88499757 14.90105731 173.65621674 15.04910698 171.01393127 15.01586914 C170.2537951 15.0221091 169.49365892 15.02834907 168.71048832 15.03477812 C166.16150017 15.05074254 163.61346375 15.03809092 161.06446838 15.0255127 C159.23787375 15.0309323 157.41128349 15.03805405 155.58470154 15.04675293 C150.62190944 15.06500846 145.65944947 15.05790954 140.69665146 15.04523659 C135.50682927 15.03512048 130.31703581 15.0444984 125.12721252 15.05078125 C116.41125881 15.0580617 107.6954406 15.04845949 98.97950745 15.02941895 C88.89786832 15.00764947 78.81655274 15.01470056 68.73492146 15.03672457 C60.08429091 15.05486721 51.43375785 15.05744244 42.78311443 15.04696989 C37.61415998 15.04072872 32.44535769 15.03991648 27.27641296 15.05311584 C22.41720025 15.06465718 17.55840533 15.05668003 12.69923782 15.03353882 C10.91420816 15.02824254 9.12914344 15.02978117 7.34412766 15.03858948 C4.91050557 15.04949264 2.47822893 15.03584605 0.04469299 15.01586914 C-1.01931181 15.02925347 -1.01931181 15.02925347 -2.10481167 15.04290819 C-5.45551614 14.98941771 -7.20452896 14.70923466 -9.90914917 12.66368866 C-11.47068787 10.50793457 -11.47068787 10.50793457 -11.97068787 7.50793457 C-10.82149681 0.61278824 -6.1712865 -0.07813358 0 0 Z " fill="#010101" transform="translate(64.47068786621094,359.4920654296875)"/>
<path d="M0 0 C1.12182828 -0.0083016 1.12182828 -0.0083016 2.26631975 -0.0167709 C4.77387188 -0.0303908 7.28043095 -0.01540165 9.78796387 -0.00050354 C11.58500085 -0.00428624 13.38203492 -0.00978588 15.17906189 -0.01687622 C20.06129295 -0.03085448 24.94317254 -0.01964443 29.82538414 -0.00316501 C34.93111838 0.01067043 40.03683191 0.00422713 45.14257812 0.0007019 C53.71730219 -0.00200141 62.29188637 0.01148583 70.86657715 0.03465271 C80.78458124 0.06126319 90.70235142 0.06300999 100.62037897 0.05126435 C110.15543267 0.0404906 119.69040164 0.04667047 129.22544861 0.06081963 C133.2859853 0.06658292 137.34646006 0.06649404 141.40699768 0.06175423 C146.1873634 0.05698703 150.9674725 0.06707546 155.74778938 0.08870888 C157.50379127 0.09428043 159.2598178 0.09473868 161.01582146 0.08975601 C163.40984097 0.08381416 165.80307299 0.09628652 168.19702148 0.11352539 C168.89468518 0.10751535 169.59234887 0.1015053 170.31115389 0.09531313 C174.33382142 0.14811757 176.73389205 0.58870291 179.59851074 3.50120544 C180.12976074 5.43870544 180.12976074 5.43870544 180.09851074 7.50120544 C180.11397949 8.52214294 180.11397949 8.52214294 180.12976074 9.56370544 C179.3480572 12.41462423 178.14544141 13.03018152 175.59851074 14.50120544 C173.04885708 14.79161481 170.74495981 14.91083479 168.19702148 14.8888855 C167.44913597 14.89427104 166.70125045 14.89965657 165.93070173 14.90520531 C163.42331991 14.91951907 160.91646348 14.91237295 158.40905762 14.90525818 C156.61202062 14.91095993 154.81498724 14.91792343 153.01795959 14.92605591 C148.1358001 14.94402288 143.25381999 14.94281243 138.37163734 14.93711352 C134.29834744 14.93402715 130.22509227 14.94010788 126.15180731 14.94615227 C116.54465703 14.96020716 106.93759566 14.95862784 97.33044434 14.94725037 C87.41240844 14.93576443 77.4946428 14.94985064 67.57664251 14.97664684 C59.06614699 14.99878112 50.55573645 15.00544646 42.04521418 14.99957043 C36.9600849 14.99619465 31.87512893 14.99865718 26.7900238 15.01582146 C22.00962072 15.03125263 17.2296191 15.02737777 12.4492321 15.00851631 C10.69322221 15.00481997 8.93718282 15.00796921 7.18120003 15.0184021 C4.78699959 15.03154268 2.39414192 15.02012768 0 15.00241089 C-1.04649554 15.0168184 -1.04649554 15.0168184 -2.1141324 15.03151697 C-5.44066197 14.98073996 -7.15066527 14.6914195 -9.83283234 12.6573801 C-11.40148926 10.50120544 -11.40148926 10.50120544 -11.90148926 7.50120544 C-10.7579975 0.64025488 -6.1505487 -0.08467699 0 0 Z " fill="#000000" transform="translate(64.4014892578125,293.49879455566406)"/>
<path d="M0 0 C0.7430964 -0.00623996 1.4861928 -0.01247993 2.25180727 -0.01890898 C4.7431907 -0.03487093 7.23360006 -0.0222228 9.72499084 -0.00964355 C11.51055472 -0.01506332 13.29611413 -0.02218516 15.08166504 -0.03088379 C19.9329601 -0.04913875 24.78391538 -0.04204031 29.63521647 -0.02936745 C34.7097928 -0.01924947 39.78433978 -0.02862993 44.85891724 -0.03491211 C53.38236216 -0.04219268 61.90566852 -0.03259074 70.42909241 -0.0135498 C80.28463539 0.00821273 90.13984731 0.00117369 99.99538225 -0.02085543 C108.45409859 -0.03900606 116.91271524 -0.04156918 125.37144476 -0.03110075 C130.42473722 -0.02486308 135.47787407 -0.02403759 140.53115654 -0.0372467 C145.28285405 -0.04879941 150.03412475 -0.04079004 154.78577614 -0.01766968 C156.53007168 -0.01237919 158.27440311 -0.01390218 160.01868439 -0.02272034 C162.39941621 -0.03364656 164.77877931 -0.01994898 167.15942383 0 C168.19571368 -0.01338433 168.19571368 -0.01338433 169.25293869 -0.02703905 C172.72922019 0.02948932 174.60562706 0.48430329 177.57578373 2.35218048 C179.64320374 4.50793457 179.64320374 4.50793457 180.20570374 7.50793457 C179.50545684 11.24258468 178.65202098 12.2219847 175.64320374 14.50793457 C173.03494479 14.90113803 170.84773242 15.04919924 168.24171448 15.01586914 C167.1198862 15.02522908 167.1198862 15.02522908 165.97539473 15.03477812 C163.46785989 15.05074065 160.96129276 15.03809173 158.45375061 15.0255127 C156.65671216 15.03093239 154.85967816 15.03805418 153.06265259 15.04675293 C148.18043462 15.06500745 143.2985543 15.05790998 138.41633034 15.04523659 C133.31058965 15.03511995 128.20487816 15.04449855 123.09913635 15.05078125 C114.52441713 15.05806155 105.94983565 15.0484599 97.37513733 15.02941895 C87.4570911 15.00764949 77.53937376 15.01470059 67.62133551 15.03672457 C59.11083072 15.05486765 50.60042504 15.05744223 42.08990717 15.04696989 C37.00478886 15.04072896 31.91982521 15.0399158 26.8347168 15.05311584 C22.05429603 15.06465784 17.27429991 15.05667887 12.49392509 15.03353882 C10.73792158 15.02824288 8.98188242 15.02978059 7.22589302 15.03858948 C4.83167478 15.04949406 2.43882372 15.03584451 0.04469299 15.01586914 C-1.00180255 15.02925347 -1.00180255 15.02925347 -2.06943941 15.04290819 C-5.3952504 14.98895217 -7.10681989 14.69754907 -9.78813934 12.66368866 C-11.35679626 10.50793457 -11.35679626 10.50793457 -11.85679626 7.50793457 C-10.71744815 0.67184589 -6.13566647 -0.07899091 0 0 Z " fill="#010101" transform="translate(64.35679626464844,326.4920654296875)"/>
<path d="M0 0 C3.92166951 0.5602385 4.59109524 1.35529178 7.0625 4.4375 C8.58224091 7.50591137 9.79091759 10.67354456 11 13.875 C11.51723633 15.20893799 11.51723633 15.20893799 12.04492188 16.56982422 C12.73608112 18.35553426 13.42284287 20.14295319 14.10498047 21.93212891 C14.95335834 24.15192844 15.81709581 26.36453787 16.69140625 28.57421875 C20.0625 37.15081909 20.0625 37.15081909 20.0625 39.4375 C20.7225 39.4375 21.3825 39.4375 22.0625 39.4375 C22.43375 37.7978125 22.43375 37.7978125 22.8125 36.125 C24.14527678 32.1933085 24.57831337 31.40106472 28.0625 29.4375 C30.83984375 29.06518555 30.83984375 29.06518555 34 29.07421875 C35.71316406 29.07518555 35.71316406 29.07518555 37.4609375 29.07617188 C38.64945312 29.09228516 39.83796875 29.10839844 41.0625 29.125 C42.84527344 29.12016602 42.84527344 29.12016602 44.6640625 29.11523438 C54.60607039 29.17695113 54.60607039 29.17695113 58.0625 31.4375 C59.58741998 34.48733996 59.29812548 37.0798369 59.0625 40.4375 C57.45240009 42.68683263 56.52775439 43.34881573 53.79418945 43.86987305 C52.49807739 43.90914917 52.49807739 43.90914917 51.17578125 43.94921875 C50.23798828 43.98466797 49.30019531 44.02011719 48.33398438 44.05664062 C47.35751953 44.07919922 46.38105469 44.10175781 45.375 44.125 C44.38693359 44.15916016 43.39886719 44.19332031 42.38085938 44.22851562 C39.94151947 44.31100538 37.50253937 44.38015068 35.0625 44.4375 C34.84110352 45.02764893 34.61970703 45.61779785 34.39160156 46.22583008 C33.37802166 48.90559401 32.34552963 51.5776769 31.3125 54.25 C30.96445313 55.17876953 30.61640625 56.10753906 30.2578125 57.06445312 C29.90976563 57.95712891 29.56171875 58.84980469 29.203125 59.76953125 C28.73181152 61.00280151 28.73181152 61.00280151 28.25097656 62.26098633 C26.86476356 64.79962415 25.51674731 65.93811013 23.0625 67.4375 C20.5625 67.875 20.5625 67.875 18.0625 67.4375 C13.82453142 64.13798445 12.42347075 60.04277134 10.609375 55.171875 C10.30429016 54.37847717 9.99920532 53.58507935 9.68487549 52.76763916 C8.71734014 50.24464148 7.76476596 47.71629517 6.8125 45.1875 C6.15723075 43.47097945 5.50099132 41.75482893 4.84375 40.0390625 C3.23873059 35.84274459 1.64710072 31.64156857 0.0625 27.4375 C-0.27813477 28.12384521 -0.61876953 28.81019043 -0.96972656 29.51733398 C-1.41799805 30.41782471 -1.86626953 31.31831543 -2.328125 32.24609375 C-2.77188477 33.13868896 -3.21564453 34.03128418 -3.67285156 34.95092773 C-7.00743007 41.50743007 -7.00743007 41.50743007 -8.9375 43.4375 C-13.17579168 43.70353995 -17.41988934 43.7087373 -21.66552734 43.73266602 C-23.7972041 43.74987651 -25.92732862 43.79374616 -28.05859375 43.83789062 C-29.4114469 43.84801764 -30.76431327 43.85653372 -32.1171875 43.86328125 C-33.35194824 43.87786377 -34.58670898 43.89244629 -35.85888672 43.9074707 C-38.9375 43.4375 -38.9375 43.4375 -40.83251953 41.59838867 C-42.36483952 38.60179914 -42.4905523 36.75581379 -41.9375 33.4375 C-38.93930323 30.0358192 -36.45199658 29.16315479 -32.07421875 28.828125 C-30.2584079 28.76209551 -28.44179141 28.71574693 -26.625 28.6875 C-25.69365234 28.65785156 -24.76230469 28.62820312 -23.80273438 28.59765625 C-21.51423735 28.52724096 -19.22674191 28.47440786 -16.9375 28.4375 C-16.46123169 27.32507935 -16.46123169 27.32507935 -15.9753418 26.19018555 C-14.53261557 22.83189358 -13.07895412 19.47844525 -11.625 16.125 C-11.12548828 14.95775391 -10.62597656 13.79050781 -10.11132812 12.58789062 C-9.62470703 11.46962891 -9.13808594 10.35136719 -8.63671875 9.19921875 C-8.19158936 8.16756592 -7.74645996 7.13591309 -7.2878418 6.07299805 C-5.34893241 2.28877696 -4.27484582 0.63667917 0 0 Z " fill="#040202" transform="translate(128.9375,135.5625)"/>
<path d="M0 0 C1.27722427 -0.01272446 2.55444855 -0.02544891 3.87037659 -0.03855896 C5.28358645 -0.03237666 6.6967945 -0.02577063 8.11000061 -0.01878357 C9.60000463 -0.02584176 11.09000147 -0.03458635 12.57998657 -0.04489136 C16.62552828 -0.0674074 20.67067918 -0.06444051 24.71625972 -0.05556989 C28.09357728 -0.05046217 31.47082126 -0.05775083 34.84813124 -0.06504196 C42.81569469 -0.08204817 50.78306666 -0.07846813 58.75062561 -0.06175232 C66.97030468 -0.04483054 75.18945271 -0.06066439 83.40907377 -0.0929752 C90.46653897 -0.1196666 97.52383882 -0.12694834 104.58134943 -0.11846012 C108.79633624 -0.11352948 113.01100351 -0.11575357 117.22595024 -0.13624763 C121.1898137 -0.15459789 125.15291312 -0.14865499 129.11673546 -0.12404823 C130.57077401 -0.1190381 132.0248707 -0.12253554 133.47886276 -0.13519669 C135.46494309 -0.15112188 137.45120873 -0.13315859 139.43725586 -0.11352539 C141.1038999 -0.11264593 141.1038999 -0.11264593 142.80421352 -0.1117487 C146.76558035 0.72153788 148.29870562 2.38463464 150.78211975 5.5146637 C150.84461975 8.6396637 150.84461975 8.6396637 149.78211975 11.5146637 C146.53924006 14.71518318 144.01896212 14.89259493 139.55751038 14.90234375 C138.27884094 14.91224838 137.00017151 14.92215302 135.68275452 14.93235779 C134.26795864 14.92811978 132.85316368 14.92356192 131.43836975 14.91871643 C129.9467467 14.92441933 128.45512802 14.93138329 126.96351624 14.93951416 C122.91396405 14.9574684 118.86462827 14.95627313 114.81504822 14.95057178 C111.43516221 14.94748358 108.05531799 14.95356816 104.67543793 14.95961052 C96.70315074 14.97366119 88.7309707 14.9720896 80.75868225 14.96070862 C72.53110421 14.94922283 64.30385195 14.96330944 56.07631683 14.99010509 C49.01378837 15.01224621 41.95136229 15.01890319 34.88880157 15.01302868 C30.66997476 15.00965455 26.45135687 15.01210439 22.2325592 15.02927971 C18.26633728 15.04472194 14.30059898 15.04082408 10.33439636 15.02197456 C8.87832228 15.01828126 7.42221259 15.02141876 5.96617126 15.03186035 C3.97972698 15.04501879 1.99315824 15.0311466 0.00672913 15.01586914 C-1.1052887 15.01565986 -2.21730652 15.01545057 -3.36302185 15.01523495 C-6.89000796 14.39681273 -8.07119522 13.33319632 -10.21788025 10.5146637 C-10.71788025 7.5146637 -10.71788025 7.5146637 -10.21788025 4.5146637 C-7.14939167 0.48843364 -4.96165802 0.01253871 0 0 Z " fill="#010101" transform="translate(196.21788024902344,227.48533630371094)"/>
<path d="M0 0 C1.16928543 -0.0112793 2.33857086 -0.02255859 3.54328918 -0.03417969 C4.82237656 -0.02608276 6.10146393 -0.01798584 7.41931152 -0.00964355 C8.78285978 -0.01506496 10.14640217 -0.02218772 11.50993347 -0.03088379 C15.21040649 -0.04911839 18.91043341 -0.04204938 22.61091423 -0.02936745 C26.48346026 -0.01924034 30.3559681 -0.02863231 34.22851562 -0.03491211 C40.73179991 -0.04218939 47.23490249 -0.03259881 53.73815918 -0.0135498 C61.25685198 0.00821924 68.77511092 0.00116792 76.2937932 -0.02085543 C82.74912241 -0.03900725 89.20432101 -0.04156887 95.65966749 -0.03110075 C99.51519349 -0.02486456 103.37051555 -0.02403346 107.22602844 -0.0372467 C110.85084657 -0.04880159 114.47510535 -0.04078695 118.09986305 -0.01766968 C120.06475175 -0.00985738 122.02968775 -0.02174163 123.99455261 -0.03417969 C125.16383804 -0.02290039 126.33312347 -0.01162109 127.5378418 0 C128.55399315 0.0015081 129.5701445 0.0030162 130.61708832 0.00457001 C134.00858146 0.64833518 135.1944386 1.79134858 137.2689209 4.50793457 C137.7689209 8.07043457 137.7689209 8.07043457 137.2689209 11.50793457 C135.08439407 13.71538468 133.70370951 14.44557868 130.61708832 14.8882513 C129.60093697 14.8906812 128.58478561 14.8931111 127.5378418 14.89561462 C125.78391365 14.91047157 125.78391365 14.91047157 123.99455261 14.92562866 C122.71546524 14.92112701 121.43637787 14.91662537 120.11853027 14.9119873 C118.75498393 14.91769085 117.39144236 14.92465505 116.02790833 14.93278503 C112.32751259 14.95073224 108.62735377 14.94954537 104.92692757 14.94384265 C101.83782348 14.94075345 98.74876508 14.94684015 95.65966749 14.9528814 C88.37296725 14.96692974 81.08638424 14.96536242 73.79968262 14.95397949 C66.28100345 14.94249378 58.76268079 14.95658061 51.2440486 14.98337597 C44.78873159 15.00552088 38.3335266 15.01217322 31.8781743 15.00629956 C28.02263381 15.00292634 24.16732193 15.00536915 20.31181335 15.02255058 C16.68701846 15.03799895 13.06275258 15.03408837 9.43797874 15.01524544 C7.47307392 15.00979275 5.50814545 15.02408908 3.54328918 15.03894043 C2.37400375 15.02910629 1.20471832 15.01927216 0 15.00914001 C-1.01615135 15.00893073 -2.0323027 15.00872145 -3.07924652 15.00850582 C-6.45914222 14.37050226 -7.64581304 13.1953483 -9.7310791 10.50793457 C-10.2310791 7.50793457 -10.2310791 7.50793457 -9.7310791 4.50793457 C-6.76014184 0.67984741 -4.77534361 0.00708724 0 0 Z " fill="#030304" transform="translate(62.7310791015625,425.4920654296875)"/>
<path d="M0 0 C2.97 0 5.94 0 9 0 C9.01458252 0.79696289 9.02916504 1.59392578 9.04418945 2.41503906 C9.11867475 6.02718124 9.21533512 9.63839974 9.3125 13.25 C9.33505859 14.50425781 9.35761719 15.75851562 9.38085938 17.05078125 C9.4340332 18.85869141 9.4340332 18.85869141 9.48828125 20.703125 C9.51446533 21.81333008 9.54064941 22.92353516 9.56762695 24.06738281 C10.05686867 27.38571794 10.47011344 28.7902858 13 31 C16.09010736 31.645369 16.09010736 31.645369 19.63671875 31.609375 C21.58481445 31.65771484 21.58481445 31.65771484 23.57226562 31.70703125 C24.94400595 31.72177586 26.31575093 31.73609331 27.6875 31.75 C29.07100111 31.77815875 30.45446744 31.80808608 31.83789062 31.83984375 C35.22494098 31.91065317 38.61247519 31.9575764 42 32 C42 39.59 42 47.18 42 55 C39.92976563 55.04898438 37.85953125 55.09796875 35.7265625 55.1484375 C33.72426441 55.20405689 31.72196754 55.25974397 29.71972656 55.31738281 C28.32691428 55.35569327 26.93400235 55.39054259 25.54101562 55.421875 C23.54013692 55.46747907 21.53957854 55.52651623 19.5390625 55.5859375 C18.33459473 55.6173584 17.13012695 55.6487793 15.88916016 55.68115234 C12.8739982 55.70915226 12.8739982 55.70915226 11 58 C10.62677573 61.10756015 10.62677573 61.10756015 10.5859375 64.7578125 C10.56657135 65.42086395 10.5472052 66.08391541 10.5272522 66.76705933 C10.46744046 68.88624177 10.42106612 71.0054785 10.375 73.125 C10.33682155 74.56122169 10.29776989 75.99742045 10.2578125 77.43359375 C10.16009181 80.95561029 10.08054124 84.47738072 10 88 C2.41 88 -5.18 88 -13 88 C-13 87.67 -13 87.34 -13 87 C-8.71 87 -4.42 87 0 87 C0 58.29 0 29.58 0 0 Z " fill="#CBDEEC" transform="translate(376,330)"/>
<path d="M0 0 C0.89024368 -0.01134979 1.78048737 -0.02269958 2.69770813 -0.03439331 C4.15887054 -0.02999741 4.15887054 -0.02999741 5.64955139 -0.0255127 C6.67744278 -0.03398224 7.70533417 -0.04245178 8.76437378 -0.05117798 C12.17031648 -0.07462304 15.57580942 -0.07556833 18.98182678 -0.07434082 C21.34450462 -0.08143782 23.70718073 -0.08913613 26.06985474 -0.09741211 C31.02550547 -0.11087419 35.98099684 -0.11241787 40.93666077 -0.10656738 C47.29369171 -0.10066966 53.64995937 -0.13125878 60.00684261 -0.17168427 C64.88726943 -0.19750767 69.76751118 -0.20044352 74.6479969 -0.1967926 C76.99201438 -0.19848886 79.33603994 -0.2081796 81.67999077 -0.22593689 C84.95552326 -0.24801994 88.22949395 -0.23847784 91.50502014 -0.2208252 C92.47710419 -0.23408844 93.44918823 -0.24735168 94.45072937 -0.26101685 C100.99767525 -0.17884641 100.99767525 -0.17884641 104.27554321 2.73754883 C105.64198303 5.39440918 105.64198303 5.39440918 105.64198303 8.51940918 C104.42829397 12.00876524 103.89766307 12.68224534 100.64198303 14.39440918 C97.33177713 14.84928865 94.04144747 14.81424428 90.70448303 14.79846191 C89.69595276 14.80532516 88.68742249 14.81218842 87.64833069 14.81925964 C84.3127385 14.83756967 80.97761472 14.83368439 77.64198303 14.82800293 C75.32557522 14.83256237 73.00916876 14.83786723 70.69276428 14.84388733 C65.83723964 14.85282647 60.9818794 14.85038569 56.12635803 14.8404541 C49.89836122 14.8289577 43.67093081 14.84918265 37.44300842 14.87837124 C32.65952438 14.89669932 27.87617696 14.89644762 23.09266663 14.89073372 C20.79610906 14.89058012 18.49954245 14.89665611 16.20301819 14.90902519 C12.99480933 14.92387065 9.78765834 14.91330528 6.57948303 14.89611816 C5.62767151 14.90578613 4.67585999 14.9154541 3.69520569 14.92541504 C-2.69962452 14.8535262 -2.69962452 14.8535262 -5.95176697 12.58570862 C-8.00027433 9.39360691 -7.82961184 7.09979744 -7.35801697 3.39440918 C-5.1768338 0.45678701 -3.58628096 0.01728302 0 0 Z " fill="#040404" transform="translate(241.35801696777344,128.6055908203125)"/>
<path d="M0 0 C1.00692398 -0.00846954 2.01384796 -0.01693909 3.05128479 -0.02566528 C6.38205573 -0.04907746 9.71236587 -0.05005643 13.04321289 -0.04882812 C15.3572254 -0.05592701 17.67123614 -0.0636256 19.98524475 -0.07189941 C24.8365671 -0.08535386 29.6877267 -0.08690855 34.5390625 -0.08105469 C40.75808953 -0.07515708 46.9763363 -0.10574911 53.19521236 -0.14617157 C57.97445387 -0.17201153 62.75350657 -0.17492933 67.5328083 -0.17127991 C69.82576013 -0.17297454 72.11872036 -0.18264989 74.41160393 -0.20042419 C77.61738296 -0.22254036 80.82157052 -0.21294836 84.02734375 -0.1953125 C84.97556 -0.20857574 85.92377625 -0.22183899 86.90072632 -0.23550415 C91.45604 -0.17722789 93.45910931 -0.04450863 97.20265198 2.76306152 C99.07836914 5.41992188 99.07836914 5.41992188 99.14086914 8.54492188 C97.863144 12.00229579 97.3247976 12.7100129 94.07836914 14.41992188 C90.76817724 14.87485454 87.4778242 14.83975693 84.14086914 14.82397461 C83.13233887 14.83083786 82.12380859 14.83770111 81.0847168 14.84477234 C77.74912461 14.86308236 74.41400082 14.85919709 71.07836914 14.85351562 C68.76196133 14.85807507 66.44555487 14.86337993 64.12915039 14.86940002 C59.27362575 14.87833916 54.41826551 14.87589839 49.56274414 14.8659668 C43.33474733 14.8544704 37.10731692 14.87469534 30.87939453 14.90388393 C26.09591049 14.92221202 21.31256306 14.92196032 16.52905273 14.91624641 C14.23249517 14.91609282 11.93592856 14.92216881 9.6394043 14.93453789 C6.43119544 14.94938334 3.22404445 14.93881797 0.01586914 14.92163086 C-0.93594238 14.93129883 -1.88775391 14.9409668 -2.8684082 14.95092773 C-9.26424619 14.87902757 -9.26424619 14.87902757 -12.51147461 12.61122131 C-14.58244095 9.39306207 -14.46480729 7.15425986 -13.92163086 3.41992188 C-10.35520881 -0.84770639 -5.09695449 -0.01571934 0 0 Z " fill="#020303" transform="translate(247.921630859375,194.580078125)"/>
<path d="M0 0 C0.88038437 -0.01134979 1.76076874 -0.02269958 2.66783142 -0.03439331 C4.11261116 -0.02999741 4.11261116 -0.02999741 5.58657837 -0.0255127 C7.11137566 -0.03821701 7.11137566 -0.03821701 8.66697693 -0.05117798 C12.03564888 -0.0746243 15.40386606 -0.07556822 18.77261353 -0.07434082 C21.11047551 -0.08143831 23.44833574 -0.08913669 25.78619385 -0.09741211 C30.69057047 -0.11087488 35.59478607 -0.11241782 40.49917603 -0.10656738 C46.78660992 -0.10067295 53.0732712 -0.13124484 59.36055565 -0.17168427 C64.19041106 -0.19752564 69.02007965 -0.20044181 73.84999466 -0.1967926 C76.16806605 -0.19848751 78.48614574 -0.20816544 80.80414963 -0.22593689 C84.0459545 -0.2480528 87.28618549 -0.23846063 90.52798462 -0.2208252 C91.48712265 -0.23408844 92.44626068 -0.24735168 93.4344635 -0.26101685 C98.01466037 -0.20307427 100.05277807 -0.07997784 103.81768799 2.73754883 C105.68667603 5.39440918 105.68667603 5.39440918 105.74917603 8.51940918 C104.47145088 11.9767831 103.93310448 12.6845002 100.68667603 14.39440918 C97.37648413 14.84934185 94.08613108 14.81424424 90.74917603 14.79846191 C89.74064575 14.80532516 88.73211548 14.81218842 87.69302368 14.81925964 C84.3574315 14.83756967 81.02230771 14.83368439 77.68667603 14.82800293 C75.37026821 14.83256237 73.05386175 14.83786723 70.73745728 14.84388733 C65.88193263 14.85282647 61.02657239 14.85038569 56.17105103 14.8404541 C49.94305421 14.8289577 43.7156238 14.84918265 37.48770142 14.87837124 C32.70421738 14.89669932 27.92086995 14.89644762 23.13735962 14.89073372 C20.84080205 14.89058012 18.54423544 14.89665611 16.24771118 14.90902519 C13.03950232 14.92387065 9.83235134 14.91330528 6.62417603 14.89611816 C5.6723645 14.90578613 4.72055298 14.9154541 3.73989868 14.92541504 C-2.65493153 14.8535262 -2.65493153 14.8535262 -5.90707397 12.58570862 C-7.95558133 9.39360691 -7.78491884 7.09979744 -7.31332397 3.39440918 C-5.14112925 0.47538983 -3.56887716 0.01739413 0 0 Z " fill="#030404" transform="translate(241.31332397460938,161.6055908203125)"/>
<path d="M0 0 C0.66 0 1.32 0 2 0 C2.03738281 0.58007812 2.07476562 1.16015625 2.11328125 1.7578125 C2.53476767 6.76606287 3.147081 10.7206215 6 15 C9.77578934 17.77914896 12.45468685 18.37706563 17.10362244 18.38768005 C18.33029129 18.39758469 19.55696014 18.40748932 20.82080078 18.41769409 C22.17212015 18.41345637 23.52343854 18.40889854 24.87475586 18.40405273 C26.30416904 18.40975775 27.73357767 18.41672253 29.16297913 18.42485046 C33.03906113 18.44278281 36.91491676 18.44161338 40.79102778 18.43590808 C44.02911239 18.43281626 47.2671535 18.43890861 50.50523192 18.44494683 C58.14537049 18.45899074 65.78539724 18.45743195 73.42553711 18.44604492 C81.3026228 18.43456404 89.179368 18.448639 97.05640882 18.4754414 C103.8243 18.49760602 110.59208436 18.50423406 117.36000925 18.49836498 C121.40003619 18.49499597 125.43984488 18.49740658 129.47984123 18.51461601 C133.2794721 18.53009534 137.07859904 18.52611916 140.87821007 18.50731087 C142.27055516 18.50362764 143.66293767 18.50672581 145.05524826 18.51719666 C154.89800993 18.80225816 154.89800993 18.80225816 163 14 C165.53010902 9.78315163 165.60138247 4.8148802 166 0 C168.31 0 170.62 0 173 0 C173.45072903 7.51215054 173.656222 13.78689882 169 20 C164.63502278 24.91846136 159.58679399 26.76183653 153.17465782 27.187603 C149.64979392 27.27481708 146.13020128 27.29306598 142.60424805 27.29052734 C141.24999626 27.29651913 139.89574787 27.30332616 138.54150391 27.31088257 C134.87812224 27.32848393 131.21483412 27.33323546 127.55141425 27.33451414 C125.25824825 27.33593966 122.96510572 27.34021682 120.67194557 27.34550858 C112.65929286 27.36398963 104.64670652 27.37218163 96.6340332 27.37060547 C89.18529277 27.36940467 81.73684236 27.39049975 74.28817528 27.4220928 C67.87602756 27.4483126 61.46397424 27.45897038 55.05177337 27.45769465 C51.229604 27.45718668 47.40769259 27.46277788 43.58557701 27.48405075 C39.98783162 27.50352979 36.39058771 27.50349257 32.79282379 27.48901749 C30.85771227 27.48595654 28.92260017 27.50253806 26.98756409 27.51989746 C19.19604506 27.46418404 11.61980618 26.76553214 5.35462475 21.65888023 C-0.39451603 15.41421941 -0.28836018 7.96194484 0 0 Z " fill="#C6D9E6" transform="translate(117,66)"/>
<path d="M0 0 C2.75569447 2.18159145 4.43588747 3.87177494 6 7 C6.04227317 11.37950088 5.78687799 14.95082935 3.125 18.5 C-0.81202364 21.27907551 -4.29083092 21.40596285 -9 21 C-11.75329021 19.20437595 -13.52627461 17.94745078 -15 15 C-15.55512815 10.36786507 -15.6364242 7.01827873 -13.125 3 C-9.21191333 -0.6829051 -5.19128557 -0.82486748 0 0 Z " fill="#020204" transform="translate(206,24)"/>
</svg>
